<?xml version="1.0" encoding="UTF-8"?>
<svg id="Capa_2" data-name="Capa 2" xmlns="http://www.w3.org/2000/svg" viewBox="0 0 70.25 61.79">
  <defs>
    <style>
      .cls-1 {
        fill: #fff;
      }
    </style>
  </defs>
  <g id="Capa_1-2" data-name="Capa 1">
    <path class="cls-1" d="m70.25,11.02c-1.04,3.6-2.09,7.19-3.12,10.79-1.67,5.84-3.34,11.68-5.01,17.52-.4,1.41-1.07,1.9-2.53,1.9-12.04,0-24.08,0-36.12,0-.41,0-.82,0-1.23.1-.91.23-1.56,1.03-1.55,1.93.01.89.64,1.66,1.52,1.88.43.11.86.11,1.29.11,11.97,0,23.94,0,35.92,0,.39,0,.78-.04,1.16.08,1,.31,1.61,1.28,1.47,2.35-.13.97-.96,1.74-1.97,1.77-.89.03-1.78,0-2.7.05,1.61.49,2.91,1.4,3.78,2.84.88,1.45,1.17,3.03.75,4.68-.77,3-3.23,4.84-6.28,4.78-2.84-.06-5.26-2.12-5.89-5.03-.66-3.04.88-5.49,4.6-7.29h-25.99c1.58.51,2.88,1.42,3.75,2.86.88,1.45,1.17,3.03.75,4.68-.78,3.03-3.25,4.86-6.35,4.78-2.8-.07-5.2-2.15-5.82-5.02-.66-3.04.89-5.51,4.64-7.31-.95,0-1.84.01-2.72,0-2.9-.05-5.23-1.93-5.98-4.83-.66-2.56.57-5.42,2.99-6.77.48-.27.5-.55.4-.99-1.52-6.79-3.03-13.59-4.54-20.39-.85-3.83-1.72-7.66-2.54-11.5-.12-.57-.35-.78-.95-.77-3.29.03-6.58.02-9.87,0-1.07,0-1.92-.75-2.07-1.74C-.13,1.39.46.41,1.47.1,1.72.02,2,0,2.28,0,6.25,0,10.23,0,14.2,0c1.32,0,2.05.55,2.35,1.83.44,1.84.87,3.69,1.23,5.55.13.68.43.86,1.1.85,16.27-.02,32.54,0,48.8-.03,1.19,0,2.04.36,2.56,1.44,0,.46,0,.91,0,1.37Zm-28.04,1.42c-7.47,0-14.94,0-22.41,0-.84,0-.86.02-.67.86,1.7,7.69,3.41,15.37,5.11,23.06.1.47.29.67.82.67,10.87-.02,21.75-.01,32.62,0,.49,0,.73-.15.87-.64,2.19-7.73,4.4-15.45,6.61-23.18.22-.77.21-.77-.6-.77-7.45,0-14.89,0-22.34,0Zm-15.39,41.16c-1.05-.02-1.97.86-2.01,1.93-.04,1.04.84,1.97,1.91,2.02,1.06.05,2.03-.88,2.04-1.96.01-1.05-.88-1.97-1.94-1.99Zm28.98,3.95c1.04.04,1.97-.84,2.03-1.91.05-1.04-.81-1.98-1.89-2.04-1.06-.07-2.03.85-2.06,1.94-.03,1.04.86,1.97,1.92,2.01Z"/>
  </g>
</svg>