<?xml version="1.0" encoding="UTF-8"?>
<svg id="Capa_2" data-name="Capa 2" xmlns="http://www.w3.org/2000/svg" viewBox="0 0 87.54 123.39">
  <defs>
    <style>
      .cls-1 {
        fill: #fff;
      }

      .cls-2 {
        fill: #ff9200;
      }

      .cls-3 {
        fill: #ff9100;
      }
    </style>
  </defs>
  <g id="Capa_1-2" data-name="Capa 1">
    <g>
      <g>
        <path class="cls-1" d="m30.01,66.06c-.52-.17-.99-.07-1.45-.07-3.97-.01-7.72-.97-11.33-2.58-3.37-1.51-6.52-3.39-9.22-5.95-1.03-.97-1.97-2.03-2.95-3.05-.2-.21-.37-.46-.53-.71-.36-.59-.34-1.19.07-1.74.21-.28.46-.54.71-.78,2.29-2.21,4.58-4.42,6.88-6.62.17-.16.34-.33.53-.47.99-.74,1.65-.76,2.62,0,.81.64,1.58,1.32,2.36,2,2.08,1.82,4.35,3.32,6.93,4.32,2.54.98,5.15,1.08,7.78.44.77-.19,1.49-.53,2.15-.99,1.57-1.12,2.45-3.49,1.99-5.36-.14-.58-.45-1.09-.86-1.53-.77-.83-1.68-1.47-2.66-2.02-1.68-.94-3.49-1.54-5.29-2.16-3.22-1.12-6.36-2.41-9.36-4.05-2.44-1.33-4.69-2.91-6.63-4.94-3.7-3.87-5.17-8.53-4.66-13.82.62-6.44,4.21-10.74,9.87-13.44C19.75,1.19,22.74.48,25.83.19c3.62-.34,7.21-.24,10.76.58,4.89,1.13,9.12,3.51,12.87,6.82.46.41.89.86,1.25,1.37.7.99.71,1.71,0,2.68-.21.29-.44.55-.68.81-2.03,2.18-4.05,4.37-6.08,6.54-1.33,1.42-2.08,1.46-3.6.2-.88-.74-1.74-1.5-2.67-2.17-1.73-1.26-3.59-2.26-5.71-2.64-2.09-.38-4.16-.24-6.13.63-1.93.85-2.77,2.58-2.29,4.55.22.91.78,1.58,1.48,2.15.88.71,1.87,1.21,2.91,1.64,2.28.95,4.64,1.64,6.96,2.47,2.82,1.01,5.63,2.05,8.3,3.41,2.21,1.13,4.28,2.47,6.02,4.27,1.95,2.01,3.34,4.34,3.96,7.1.15.69.17.67.78.58,9.72-1.37,18.1,1.28,25,8.43.41.42.81.86,1.19,1.31.42.49.4.57-.15.94-.07.05-.15.09-.23.14-4.39,2.74-8.78,5.48-13.15,8.25-.55.35-.92.36-1.47-.01-4.3-2.9-10-2.57-14.04.68-6.61,5.33-6.61,15.9.46,21.15,4.69,3.49,11.37,2.98,15.47-1.19.04-.04.08-.08.12-.13.14-.15.33-.3.22-.53-.11-.21-.34-.19-.55-.19-.18,0-.35,0-.53,0-2.23,0-4.46,0-6.69,0-.21,0-.41,0-.62-.01-.24-.01-.37-.15-.38-.39,0-.21,0-.41,0-.62,0-5.12,0-10.24,0-15.36,0-.18,0-.36,0-.53,0-.34.17-.48.49-.48.18,0,.35,0,.53,0,8.6-.01,17.2-.02,25.8-.04.09,0,.18,0,.26,0,.72.01.73.01.9.69.29,1.15.53,2.31.68,3.48.6,4.91.33,9.74-1.18,14.48-2.77,8.7-9.93,16.2-18.23,19.08-3.71,1.29-7.54,1.71-11.45,1.42-9.34-.7-16.32-5.42-21.59-12.98-2.86-4.1-4.44-8.7-4.95-13.68-.31-2.99-.24-5.96.17-9Z"/>
        <path class="cls-2" d="m53.92,105.18c-.52.06-.99.15-1.48.17-6.86.27-12.79-1.96-17.72-6.82-4.16-4.1-6.94-8.98-8.11-14.75-.78-3.84-.77-7.69.08-11.53.04-.19.01-.43.32-.53-.06.69-.13,1.35-.19,2.02-.91,9.67,3.4,19.63,11.75,25.25,4.49,3.02,9.37,4.99,14.69,5.83.17.03.34.06.51.11.04.01.06.09.14.23Z"/>
        <path class="cls-2" d="m3.51,44.56c-2.46,6.09-1.93,11.67,2.91,16.49-.24.13-.41.02-.58-.04-2.44-.89-4.05-2.64-5.04-5-1.63-3.84-.71-8.43,2.21-11.19.12-.11.21-.28.5-.26Z"/>
        <path class="cls-3" d="m52.22,7.76c.34.04.76.05,1.16.13.93.21,1.33,1.09.84,1.91-.32.53-.67,1.04-.99,1.56-.42.66-.65.5-.93,0-.3-.54-.51-1.07-.37-1.68.08-.32.04-.57-.15-.82-.1-.14-.18-.31-.24-.47-.18-.47-.12-.58.36-.62.09,0,.18,0,.33,0Z"/>
      </g>
      <g>
        <path d="m.5,112.73h4.26c3.35,0,5.61,2.17,5.61,5.28s-2.26,5.28-5.61,5.28H.5v-10.56Zm4.2,9.6c2.78,0,4.58-1.78,4.58-4.31s-1.8-4.31-4.58-4.31H1.61v8.63h3.1Z"/>
        <path d="m23.25,122.33v.97h-7.4v-10.56h7.18v.97h-6.07v3.76h5.41v.95h-5.41v3.92h6.3Z"/>
        <path d="m27.85,122.01l.43-.86c.75.74,2.08,1.28,3.46,1.28,1.96,0,2.81-.83,2.81-1.87,0-2.9-6.45-1.12-6.45-5.02,0-1.55,1.2-2.9,3.86-2.9,1.18,0,2.41.35,3.25.94l-.37.89c-.9-.59-1.94-.88-2.87-.88-1.91,0-2.77.86-2.77,1.92,0,2.9,6.45,1.15,6.45,4.99,0,1.55-1.23,2.88-3.9,2.88-1.57,0-3.11-.56-3.89-1.37Z"/>
        <path d="m41.04,112.73h1.11v10.56h-1.11v-10.56Z"/>
        <path d="m55.92,118.02h1.06v4.03c-.99.89-2.39,1.34-3.84,1.34-3.19,0-5.52-2.28-5.52-5.37s2.33-5.37,5.53-5.37c1.59,0,2.96.51,3.89,1.52l-.69.71c-.88-.88-1.93-1.24-3.16-1.24-2.59,0-4.49,1.86-4.49,4.38s1.9,4.38,4.47,4.38c1,0,1.93-.23,2.74-.81v-3.56Z"/>
        <path d="m71.85,112.73v10.56h-.91l-6.73-8.57v8.57h-1.11v-10.56h.91l6.75,8.57v-8.57h1.09Z"/>
        <path d="m77.26,122.01l.43-.86c.75.74,2.08,1.28,3.46,1.28,1.96,0,2.81-.83,2.81-1.87,0-2.9-6.45-1.12-6.45-5.02,0-1.55,1.2-2.9,3.86-2.9,1.18,0,2.41.35,3.25.94l-.37.89c-.9-.59-1.94-.88-2.87-.88-1.91,0-2.77.86-2.77,1.92,0,2.9,6.45,1.15,6.45,4.99,0,1.55-1.23,2.88-3.9,2.88-1.57,0-3.11-.56-3.89-1.37Z"/>
      </g>
    </g>
  </g>
</svg>